Coordinates
version=1
nRows=16
nColumns=40
inDegrees=yes

Units are S.I. units (second, meters, Newtons, ...)
Angles are in degrees.

endheader
time	pelvis_tilt	pelvis_list	pelvis_rotation	pelvis_tx	pelvis_ty	pelvis_tz	hip_flexion_r	hip_adduction_r	hip_rotation_r	knee_angle_r	knee_angle_r_beta	ankle_angle_r	subtalar_angle_r	mtp_angle_r	hip_flexion_l	hip_adduction_l	hip_rotation_l	knee_angle_l	knee_angle_l_beta	ankle_angle_l	subtalar_angle_l	mtp_angle_l	lumbar_extension	lumbar_bending	lumbar_rotation	arm_flex_r	arm_add_r	arm_rot_r	elbow_flex_r	pro_sup_r	wrist_flex_r	wrist_dev_r	arm_flex_l	arm_add_l	arm_rot_l	elbow_flex_l	pro_sup_l	wrist_flex_l	wrist_dev_l
      1.01000000	     -1.81276028	     -1.19215165	     -0.22358782	      0.43799396	      0.88822331	      1.51222791	     -4.28797248	      1.22777230	    -11.23118848	    -18.26070617	     -0.31870945	     13.06052473	     -1.69202402	      0.86033489	     34.12914928	      5.24861077	     12.86431314	    -40.64156844	     -0.70932918	      6.99717493	     18.24992328	     21.99332928	     -5.18418940	     -1.24989541	      2.76141195	     -4.53111278	    -12.19304842	    -11.16387394	     63.37916281	     89.95437384	      0.00000000	      0.00000000	    -12.91287615	      6.72236661	     25.48958107	     27.89668430	     89.95437384	      0.00000000	      0.00000000
      1.02000000	     -1.85521655	     -1.25837545	     -0.38297504	      0.45126610	      0.88691112	      1.51111255	     -5.23758889	      0.94456486	    -12.14941945	    -18.19740172	     -0.31760458	     12.90692822	      0.17852096	     -0.20386288	     34.30983877	      5.20132859	     13.06674659	    -37.37534864	     -0.65232289	      6.56521676	     17.75567039	     20.53564803	     -5.13901103	     -1.26517164	      3.00850764	     -4.30370498	    -12.36659621	    -11.10209395	     64.86652827	     89.95437384	      0.00000000	      0.00000000	    -13.15184954	      6.53376123	     26.26691260	     26.58177092	     89.95437384	      0.00000000	      0.00000000
      1.03000000	     -2.36546410	     -1.58453352	     -0.67580597	      0.46393411	      0.88465014	      1.51047079	     -5.62853447	      1.13733749	    -12.17485161	    -18.11590999	     -0.31618228	     12.78589942	      0.54056699	     -0.37317490	     35.18533525	      5.54889534	     13.10406873	    -34.64759690	     -0.60471464	      6.54693724	     16.94568979	     20.13684940	     -4.61608225	     -1.05377062	      3.37827173	     -4.12275314	    -12.65650748	    -10.80091402	     66.26782155	     89.95437384	      0.00000000	      0.00000000	    -13.63134206	      6.45340263	     26.37364769	     25.78228717	     89.95437384	      0.00000000	      0.00000000
      1.04000000	     -2.56360433	     -1.54325742	     -1.04980879	      0.47728449	      0.88308599	      1.50950759	     -6.30065325	      0.82087110	    -12.18418859	    -18.21286127	     -0.31787440	     12.69883740	      1.25744560	     -0.84070700	     35.43656187	      5.62393570	     13.68569609	    -31.90478428	     -0.55684353	      6.54692802	     16.05387734	     19.31343076	     -4.34787268	     -1.20075439	      3.90850048	     -4.00349565	    -12.71986222	    -10.92757873	     67.47593979	     89.95437384	      0.00000000	      0.00000000	    -13.63652999	      6.38971754	     26.93986508	     24.19924668	     89.95437384	      0.00000000	      0.00000000
      1.05000000	     -2.88079709	     -1.55080688	     -1.35226315	      0.49043432	      0.88111315	      1.50831524	     -6.60022725	      0.39878454	    -12.69154815	    -18.64333769	     -0.32538763	     11.78703581	      2.14519120	     -7.53709005	     35.92802652	      5.84373055	     14.43906016	    -29.61347424	     -0.51685263	      5.52668363	     15.58160447	     10.06604995	     -4.02755071	     -1.31986573	      4.23578970	     -3.84225805	    -12.92331982	    -10.72583692	     68.61257565	     89.95437384	      0.00000000	      0.00000000	    -13.97890614	      6.27110777	     27.40440705	     23.40443604	     89.95437384	      0.00000000	      0.00000000
      1.06000000	     -3.20644953	     -1.59352140	     -1.73402489	      0.50380823	      0.87917499	      1.50726519	     -6.89334541	      0.18485544	    -12.21191909	    -19.15484396	     -0.33431509	     11.48308589	      2.28915889	     -7.51844183	     36.41965125	      6.15997776	     15.25985767	    -27.89372589	     -0.48683736	      5.63837501	     14.61471374	      9.79832295	     -3.64619809	     -1.42244983	      4.64409939	     -3.73075660	    -13.06920535	    -10.57383436	     69.58596223	     89.95437384	      0.00000000	      0.00000000	    -14.27898099	      6.23276370	     27.47930522	     22.53673497	     89.95437384	      0.00000000	      0.00000000
      1.07000000	     -3.49363483	     -1.78549279	     -1.80347808	      0.51741616	      0.87714266	      1.50569372	     -7.29262640	      0.17058338	    -11.98395257	    -19.60046914	     -0.34209272	     11.21420612	      2.28005898	     -7.45051731	     37.00793152	      6.43314611	     15.81695879	    -26.81720881	     -0.46804859	      5.85608777	     14.24668464	      9.66038248	     -3.30041727	     -1.35678195	      4.65027270	     -3.58969846	    -13.22460153	    -10.32943239	     70.42151690	     89.95437384	      0.00000000	      0.00000000	    -14.77880815	      6.16579448	     27.44581242	     22.11376526	     89.95437384	      0.00000000	      0.00000000
      1.08000000	     -3.71873348	     -1.50091381	     -2.60164794	      0.53129335	      0.87556056	      1.50490523	     -7.39235443	     -0.49407372	    -10.93668523	    -20.62472860	     -0.35996942	     10.78531488	      2.08544461	     -7.38600427	     37.11118186	      6.63760844	     17.17667841	    -25.79245755	     -0.45016331	      6.01144567	     13.33870577	      9.22085079	     -2.96387174	     -1.83100740	      5.47048218	     -3.61130970	    -13.26375321	    -10.26403011	     71.16998595	     89.95437384	      0.00000000	      0.00000000	    -14.86721631	      6.16593787	     27.69577197	     21.09194897	     89.95437384	      0.00000000	      0.00000000
      1.09000000	     -3.78908369	     -1.51146667	     -3.02975562	      0.54568056	      0.87400145	      1.50366674	     -7.77515266	     -0.80024275	    -10.26614270	    -21.50712334	     -0.37537011	     10.13584921	      1.95966049	     -7.26857009	     37.17310667	      6.82407142	     17.83712408	    -25.44575842	     -0.44411227	      6.55953620	     13.38967604	      8.97538320	     -2.77178708	     -2.00106934	      5.79124405	     -3.60471583	    -13.36634047	     -9.98974953	     71.76472251	     89.95437384	      0.00000000	      0.00000000	    -15.23877784	      6.12118406	     27.73855569	     20.56685904	     89.95437384	      0.00000000	      0.00000000
      1.10000000	     -3.91616598	     -1.60350511	     -3.08828829	      0.56063968	      0.87236229	      1.50233326	     -8.25160075	     -0.92728431	     -9.95710581	    -22.19613997	     -0.38739572	      9.75913940	      1.88593156	     -7.13359402	     37.33589012	      6.82759775	     17.69096767	    -25.56535857	     -0.44619968	      6.46965749	     13.12254455	      8.81352381	     -2.45324786	     -2.14667870	      5.75880677	     -3.67717483	    -13.21905053	     -9.92348390	     72.09289695	     89.95437384	      0.00000000	      0.00000000	    -15.82808756	      6.17515493	     27.68698996	     20.51145390	     89.95437384	      0.00000000	      0.00000000
      1.11000000	     -3.70676309	     -1.41776223	     -3.85507403	      0.57534080	      0.87135196	      1.50131851	     -8.46896433	     -1.52743801	     -8.72732109	    -23.83591766	     -0.41601524	      8.30045023	      1.53441513	     -6.86196453	     36.89946210	      6.88877608	     18.24832115	    -25.95723110	     -0.45303915	      6.90940338	     14.01135870	      8.64824997	     -2.56325124	     -2.54571760	      6.40955256	     -3.82791262	    -13.28014020	     -9.71458936	     72.66216873	     89.95437384	      0.00000000	      0.00000000	    -15.93329789	      6.20075640	     27.64256116	     19.85177669	     89.95437384	      0.00000000	      0.00000000
      1.12000000	     -3.84991713	     -1.14100989	     -4.42645571	      0.59040893	      0.86999156	      1.50028213	     -8.41119622	     -2.03293851	     -7.37903266	    -25.23733182	     -0.44047453	      7.14276821	      0.07406873	     -6.43038634	     36.70162952	      6.56957592	     17.86103893	    -26.33054385	     -0.45955468	      6.39203450	     15.48034914	      8.57259503	     -2.15166825	     -3.09274887	      6.84631038	     -4.05061231	    -13.04264932	     -9.70003349	     72.80316320	     89.95437384	      0.00000000	      0.00000000	    -16.09134341	      6.24963042	     28.19927912	     19.27837260	     89.95437384	      0.00000000	      0.00000000
      1.13000000	     -3.67004304	     -1.13983113	     -4.63275333	      0.60587235	      0.86888076	      1.49864079	     -8.67007172	     -2.36476979	     -6.97463144	    -26.79018580	     -0.46757695	      5.66154249	     -0.39570497	     -6.02984366	     36.41595342	      6.49027418	     17.65418747	    -27.66478955	     -0.48284166	      4.59431752	     15.96912160	      8.62981247	     -2.13106156	     -3.33647447	      6.82129945	     -4.24312500	    -12.98213028	     -9.39607593	     72.90210188	     89.95437384	      0.00000000	      0.00000000	    -16.44915036	      6.27590647	     28.12898083	     19.11138296	     89.95437384	      0.00000000	      0.00000000
      1.14000000	     -3.48928742	     -1.03347908	     -4.71918685	      0.62138306	      0.86790138	      1.49654651	     -8.80371705	     -2.81657124	     -6.65689189	    -28.50931954	     -0.49758149	      3.93109240	     -1.04050909	     -5.54687532	     36.16404401	      6.26438726	     17.43162451	    -29.47632551	     -0.51445893	      3.38426284	     16.59428120	      8.67792039	     -2.08871725	     -3.68142752	      6.65989801	     -4.43929404	    -12.84311743	     -9.17823601	     72.80807829	     89.95437384	      0.00000000	      0.00000000	    -16.74524726	      6.29765675	     27.93910869	     18.92092889	     89.95437384	      0.00000000	      0.00000000
      1.15000000	     -3.55513791	     -0.93279255	     -4.62383270	      0.63639445	      0.86697756	      1.49424580	     -8.36307479	     -3.09044412	     -6.15523160	    -30.65624484	     -0.53505241	      1.25757659	     -3.15954750	     -4.26984988	     36.37310881	      5.89275770	     16.41211608	    -31.26582933	     -0.54569167	      3.03919813	     17.28122635	      9.27412351	     -1.83757474	     -4.02430466	      6.40064034	     -4.71916622	    -12.65558224	     -9.00163694	     72.55686042	     89.95437384	      0.00000000	      0.00000000	    -16.78004184	      6.39440760	     27.91742611	     18.64182489	     89.95437384	      0.00000000	      0.00000000
      1.16000000	     -3.36087520	     -0.70522322	     -4.40741106	      0.65148123	      0.86683368	      1.49163834	     -7.92193215	     -3.78214400	     -6.54251378	    -33.23523249	     -0.58006423	     -2.17292841	     -3.70637046	     -3.40854599	     36.34410894	      5.46896090	     15.73572109	    -32.97863433	     -0.57558575	      2.24353268	     17.16128592	      9.23103888	     -1.88778964	     -4.51323852	      5.99051712	     -4.94702154	    -12.36873071	     -8.88125570	     72.08904351	     89.95437384	      0.00000000	      0.00000000	    -16.72393276	      6.55046686	     27.51969350	     18.35443075	     89.95437384	      0.00000000	      0.00000000
